<svg width="26" height="26" viewBox="0 0 26 26" fill="none" xmlns="http://www.w3.org/2000/svg">
<path d="M0.271927 22.8995L3.10035 25.7279L20.0709 8.75737L22.8993 11.5858L25.7278 8.75737L22.8993 5.92894L25.7278 3.10051L22.8993 0.272085L20.0709 3.10051L17.2425 0.272085L14.4141 3.10051L17.2425 5.92894L0.271927 22.8995ZM8.75721 3.10051L11.5856 0.272085L14.4141 3.10051L11.5856 5.92894L8.75721 3.10051ZM8.75721 3.10051L5.92878 5.92894L3.10035 3.10051L5.92878 0.272085L8.75721 3.10051ZM22.8993 17.2426L25.7278 14.4142L22.8993 11.5858L20.0709 14.4142L22.8993 17.2426ZM22.8993 17.2426L20.0709 20.0711L22.8993 22.8995L25.7278 20.0711L22.8993 17.2426Z" fill="#183054"/>
</svg>
