<svg width="52" height="51" viewBox="0 0 52 51" fill="none" xmlns="http://www.w3.org/2000/svg">
<path d="M16.4539 32.8804L18.5753 35.0017L31.3032 22.2738L33.4245 24.3951L35.5458 22.2738L33.4245 20.1525L35.5458 18.0312L33.4245 15.9099L31.3032 18.0312L29.1819 15.9099L27.0605 18.0312L29.1819 20.1525L16.4539 32.8804ZM22.8179 18.0312L24.9392 15.9099L27.0605 18.0312L24.9392 20.1525L22.8179 18.0312ZM22.8179 18.0312L20.6966 20.1525L18.5753 18.0312L20.6966 15.9099L22.8179 18.0312ZM33.4245 28.6378L35.5458 26.5165L33.4245 24.3951L31.3032 26.5165L33.4245 28.6378ZM33.4245 28.6378L31.3032 30.7591L33.4245 32.8804L35.5458 30.7591L33.4245 28.6378Z" fill="#0097FC"/>
</svg>
