<svg width="80" height="80" viewBox="0 0 80 80" fill="none" xmlns="http://www.w3.org/2000/svg">
<path fill-rule="evenodd" clip-rule="evenodd" d="M50.0099 13.3333C52.4899 13.3333 55.1099 14.1999 57.5099 15.1566L59.2666 15.8766C63.4666 17.6366 65.8265 21.3299 67.6566 25.3866C70.6265 31.9699 72.6899 40.7466 73.4032 47.4199C73.7432 50.5866 73.8265 53.7733 73.2165 55.9166C72.5599 58.2066 70.3265 59.8266 68.1565 61.0999L67.0832 61.7099L65.9699 62.3299C65.3921 62.6499 64.8088 62.9655 64.2199 63.2766L62.4799 64.1766L60.0899 65.3666L58.1666 66.3132C57.7736 66.5251 57.3421 66.6559 56.8977 66.6979C56.4533 66.7399 56.005 66.6921 55.5793 66.5575C55.1537 66.4229 54.7594 66.2042 54.4199 65.9143C54.0804 65.6244 53.8026 65.2693 53.603 64.87C53.4034 64.4708 53.2859 64.0354 53.2577 63.5899C53.2295 63.1444 53.2911 62.6978 53.4388 62.2765C53.5865 61.8552 53.8173 61.4679 54.1175 61.1375C54.4178 60.8072 54.7813 60.5405 55.1866 60.3533L57.8199 59.0532L55.8866 57.0233C51.2532 58.9233 45.7966 59.9999 39.9999 59.9999C34.2032 59.9999 28.7466 58.9266 24.1132 57.0233L22.1799 59.0499L24.8232 60.3499C25.215 60.5456 25.5644 60.8165 25.8515 61.1472C26.1385 61.4779 26.3577 61.8619 26.4963 62.2773C26.635 62.6927 26.6905 63.1313 26.6597 63.5682C26.6288 64.005 26.5122 64.4315 26.3166 64.8233C26.1209 65.215 25.85 65.5644 25.5193 65.8515C25.1886 66.1386 24.8046 66.3577 24.3892 66.4964C23.5503 66.7764 22.6344 66.7118 21.8432 66.3166L20.0299 65.4166C18.6899 64.7499 17.3466 64.0899 16.0199 63.3932L12.9266 61.7099L11.8566 61.0999C9.68655 59.8266 7.44988 58.2066 6.79655 55.9166C6.18322 53.7733 6.26988 50.5899 6.60655 47.4166C7.31988 40.7466 9.38322 31.9699 12.3532 25.3866C14.1832 21.3299 16.5432 17.6366 20.7432 15.8766C23.5299 14.7099 26.9066 13.3333 29.9999 13.3333C32.0099 13.3333 33.5899 15.1833 33.2999 17.1566C35.5185 16.8325 37.7577 16.6687 39.9999 16.6666C42.3032 16.6666 44.5532 16.8333 46.7132 17.1599C46.649 16.6865 46.686 16.2049 46.8219 15.7469C46.9577 15.289 47.1893 14.8651 47.5013 14.5033C47.8133 14.1415 48.1985 13.8501 48.6316 13.6484C49.0646 13.4467 49.5322 13.3393 50.0099 13.3333ZM29.1666 34.9999C27.6195 34.9999 26.1357 35.6145 25.0418 36.7085C23.9478 37.8024 23.3332 39.2862 23.3332 40.8333C23.3332 42.3803 23.9478 43.8641 25.0418 44.958C26.1357 46.052 27.6195 46.6666 29.1666 46.6666C30.7136 46.6666 32.1974 46.052 33.2913 44.958C34.3853 43.8641 34.9999 42.3803 34.9999 40.8333C34.9999 39.2862 34.3853 37.8024 33.2913 36.7085C32.1974 35.6145 30.7136 34.9999 29.1666 34.9999ZM50.8332 34.9999C49.2861 34.9999 47.8024 35.6145 46.7084 36.7085C45.6145 37.8024 44.9999 39.2862 44.9999 40.8333C44.9999 42.3803 45.6145 43.8641 46.7084 44.958C47.8024 46.052 49.2861 46.6666 50.8332 46.6666C52.3803 46.6666 53.864 46.052 54.958 44.958C56.052 43.8641 56.6665 42.3803 56.6665 40.8333C56.6665 39.2862 56.052 37.8024 54.958 36.7085C53.864 35.6145 52.3803 34.9999 50.8332 34.9999Z" fill="#183054"/>
</svg>
