<svg width="20" height="21" viewBox="0 0 20 21" fill="none" xmlns="http://www.w3.org/2000/svg">
<path d="M0.91 17.9246L3.03132 20.0459L15.7592 7.31801L17.8806 9.43933L20.0019 7.31801L17.8806 5.19669L20.0019 3.07537L17.8806 0.954049L15.7592 3.07537L13.6379 0.954049L11.5166 3.07537L13.6379 5.19669L0.91 17.9246ZM7.27396 3.07537L9.39528 0.954049L11.5166 3.07537L9.39528 5.19669L7.27396 3.07537ZM7.27396 3.07537L5.15264 5.19669L3.03132 3.07537L5.15264 0.954049L7.27396 3.07537ZM17.8806 13.682L20.0019 11.5607L17.8806 9.43933L15.7592 11.5607L17.8806 13.682ZM17.8806 13.682L15.7592 15.8033L17.8806 17.9246L20.0019 15.8033L17.8806 13.682Z" fill="#BEEEFF"/>
</svg>
