<svg width="26" height="26" viewBox="0 0 26 26" fill="none" xmlns="http://www.w3.org/2000/svg">
<path d="M0.213333 23.1164L3.04176 25.9448L20.0123 8.97422L22.8407 11.8027L25.6692 8.97422L22.8407 6.1458L25.6692 3.31737L22.8407 0.488943L20.0123 3.31737L17.1839 0.488943L14.3555 3.31737L17.1839 6.1458L0.213333 23.1164ZM8.69861 3.31737L11.527 0.488943L14.3555 3.31737L11.527 6.1458L8.69861 3.31737ZM8.69861 3.31737L5.87019 6.1458L3.04176 3.31737L5.87019 0.488943L8.69861 3.31737ZM22.8407 17.4595L25.6692 14.6311L22.8407 11.8027L20.0123 14.6311L22.8407 17.4595ZM22.8407 17.4595L20.0123 20.2879L22.8407 23.1164L25.6692 20.2879L22.8407 17.4595Z" fill="white"/>
</svg>
